<svg width="28" height="28" viewBox="0 0 24 24" fill="none" xmlns="http://www.w3.org/2000/svg">
<g clip-path="url(#clip0_2_15)">
<path fill-rule="evenodd" clip-rule="evenodd" d="M24 24H18.696V15.564C18.696 13.3548 17.8669 11.8476 16.0418 11.8476C14.6455 11.8476 13.8698 12.864 13.5087 13.8444C13.3735 14.1972 13.3942 14.6868 13.3942 15.1764V24H8.13927C8.13927 24 8.20691 9.0552 8.13927 7.6968H13.3942V10.2552C13.7051 9.1356 15.384 7.5396 18.0633 7.5396C21.3884 7.5396 24 9.8844 24 14.934V24ZM2.82545 5.6568H2.79164C1.09745 5.6568 0 4.41 0 2.832C0 1.2204 1.13018 0 2.85818 0C4.58182 0 5.64327 1.2168 5.67709 2.826C5.67709 4.4064 4.58182 5.658 2.82436 5.658L2.82545 5.6568ZM0.605455 7.6968H5.28327V24H0.605455V7.6968Z" fill="black"/>
</g>
<defs>
<clipPath id="clip0_2_15">
<rect width="24" height="24" fill="white"/>
</clipPath>
</defs>
</svg>
